HIERARCHY
ROOT hip
{
  OFFSET 0 0 0
  CHANNELS 6 Xposition Yposition Zposition Zrotation Yrotation Xrotation
  JOINT abdomen
  {
    OFFSET 0 20.6881 -0.73152
    CHANNELS 3 Zrotation Xrotation Yrotation
    JOINT chest
    {
      OFFSET 0 11.7043 -0.48768
      CHANNELS 3 Zrotation Xrotation Yrotation
      JOINT neck
      {
        OFFSET 0 22.1894 -2.19456
        CHANNELS 3 Zrotation Xrotation Yrotation
        JOINT head
        {
          OFFSET -0.24384 7.07133 1.2192
          CHANNELS 3 Zrotation Xrotation Yrotation
          JOINT leftEye
          {
            OFFSET 4.14528 8.04674 8.04672
            CHANNELS 3 Zrotation Xrotation Yrotation
            End Site
            {
              OFFSET 1 0 0
            }
          }
          JOINT rightEye
          {
            OFFSET -3.6576 8.04674 8.04672
            CHANNELS 3 Zrotation Xrotation Yrotation
            End Site
            {
              OFFSET 1 0 0
            }
          }
        }
      }
      JOINT rCollar
      {
        OFFSET -2.68224 19.2634 -4.8768
        CHANNELS 3 Zrotation Xrotation Yrotation
        JOINT rShldr
        {
          OFFSET -8.77824 -1.95073 1.46304
          CHANNELS 3 Zrotation Xrotation Yrotation
          JOINT rForeArm
          {
            OFFSET -28.1742 -1.7115 0.48768
            CHANNELS 3 Zrotation Xrotation Yrotation
            JOINT rHand
            {
              OFFSET -22.5879 0.773209 7.07136
              CHANNELS 3 Zrotation Xrotation Yrotation
              JOINT rThumb1
              {
                OFFSET -1.2192 -0.487915 3.41376
                CHANNELS 3 Zrotation Xrotation Yrotation
                JOINT rThumb2
                {
                  OFFSET -3.37035 -0.52449 3.41376
                  CHANNELS 3 Zrotation Xrotation Yrotation
                  End Site
                  {
                    OFFSET -1.78271 -1.18214 1.43049
                  }
                }
              }
              JOINT rIndex1
              {
                OFFSET -7.75947 0.938293 5.60832
                CHANNELS 3 Zrotation Xrotation Yrotation
                JOINT rIndex2
                {
                  OFFSET -2.54057 -0.884171 1.56538
                  CHANNELS 3 Zrotation Xrotation Yrotation
                  End Site
                  {
                    OFFSET -1.62519 -0.234802 1.16502
                  }
                }
              }
              JOINT rMid1
              {
                OFFSET -8.24714 1.18213 3.41376
                CHANNELS 3 Zrotation Xrotation Yrotation
                JOINT rMid2
                {
                  OFFSET -3.10165 -0.590103 1.0647
                  CHANNELS 3 Zrotation Xrotation Yrotation
                  End Site
                  {
                    OFFSET -2.48547 -0.328903 0.83742
                  }
                }
              }
              JOINT rRing1
              {
                OFFSET -8.82822 0.546677 1.51678
                CHANNELS 3 Zrotation Xrotation Yrotation
                JOINT rRing2
                {
                  OFFSET -2.60934 -0.819778 -0.0198488
                  CHANNELS 3 Zrotation Xrotation Yrotation
                  End Site
                  {
                    OFFSET -2.33842 -0.294052 0.168128
                  }
                }
              }
              JOINT rPinky1
              {
                OFFSET -8.27202 -0.0477905 -0.4584
                CHANNELS 3 Zrotation Xrotation Yrotation
                JOINT rPinky2
                {
                  OFFSET -1.82734 -0.647385 -0.700984
                  CHANNELS 3 Zrotation Xrotation Yrotation
                  End Site
                  {
                    OFFSET -1.69225 -0.51767 -0.607171
                  }
                }
              }
            }
          }
        }
      }
      JOINT lCollar
      {
        OFFSET 2.68224 19.2634 -4.8768
        CHANNELS 3 Zrotation Xrotation Yrotation
        JOINT lShldr
        {
          OFFSET 8.77824 -1.95073 1.46304
          CHANNELS 3 Zrotation Xrotation Yrotation
          JOINT lForeArm
          {
            OFFSET 28.1742 -1.7115 0.48768
            CHANNELS 3 Zrotation Xrotation Yrotation
            JOINT lHand
            {
              OFFSET 22.5879 0.773209 7.07136
              CHANNELS 3 Zrotation Xrotation Yrotation
              JOINT lThumb1
              {
                OFFSET 1.2192 -0.487915 3.41376
                CHANNELS 3 Zrotation Xrotation Yrotation
                JOINT lThumb2
                {
                  OFFSET 3.37035 -0.52449 3.41376
                  CHANNELS 3 Zrotation Xrotation Yrotation
                  End Site
                  {
                    OFFSET 1.78271 -1.18214 1.43049
                  }
                }
              }
              JOINT lIndex1
              {
                OFFSET 7.75947 0.938293 5.60832
                CHANNELS 3 Zrotation Xrotation Yrotation
                JOINT lIndex2
                {
                  OFFSET 2.54057 -0.884171 1.56538
                  CHANNELS 3 Zrotation Xrotation Yrotation
                  End Site
                  {
                    OFFSET 1.62519 -0.234802 1.16502
                  }
                }
              }
              JOINT lMid1
              {
                OFFSET 8.24714 1.18213 3.41376
                CHANNELS 3 Zrotation Xrotation Yrotation
                JOINT lMid2
                {
                  OFFSET 3.10165 -0.590103 1.0647
                  CHANNELS 3 Zrotation Xrotation Yrotation
                  End Site
                  {
                    OFFSET 2.48547 -0.328903 0.83742
                  }
                }
              }
              JOINT lRing1
              {
                OFFSET 8.82822 0.546677 1.51678
                CHANNELS 3 Zrotation Xrotation Yrotation
                JOINT lRing2
                {
                  OFFSET 2.60934 -0.819778 -0.0198488
                  CHANNELS 3 Zrotation Xrotation Yrotation
                  End Site
                  {
                    OFFSET 2.33842 -0.294052 0.168128
                  }
                }
              }
              JOINT lPinky1
              {
                OFFSET 8.27202 -0.0477905 -0.4584
                CHANNELS 3 Zrotation Xrotation Yrotation
                JOINT lPinky2
                {
                  OFFSET 1.82734 -0.647385 -0.700984
                  CHANNELS 3 Zrotation Xrotation Yrotation
                  End Site
                  {
                    OFFSET 1.69225 -0.51767 -0.607171
                  }
                }
              }
            }
          }
        }
      }
    }
  }
  JOINT rButtock
  {
    OFFSET -8.77824 4.35084 1.2192
    CHANNELS 3 Zrotation Xrotation Yrotation
    JOINT rThigh
    {
      OFFSET 0 -1.70687 -2.19456
      CHANNELS 3 Zrotation Xrotation Yrotation
      JOINT rShin
      {
        OFFSET 0 -36.8199 0.73152
        CHANNELS 3 Zrotation Xrotation Yrotation
        JOINT rFoot
        {
          OFFSET 0.73152 -45.1104 -5.12064
          CHANNELS 3 Zrotation Xrotation Yrotation
          End Site
          {
            OFFSET -1.1221 -3.69964 12.103
          }
        }
      }
    }
  }
  JOINT lButtock
  {
    OFFSET 8.77824 4.35084 1.2192
    CHANNELS 3 Zrotation Xrotation Yrotation
    JOINT lThigh
    {
      OFFSET 0 -1.70687 -2.19456
      CHANNELS 3 Zrotation Xrotation Yrotation
      JOINT lShin
      {
        OFFSET 0 -36.8199 0.73152
        CHANNELS 3 Zrotation Xrotation Yrotation
        JOINT lFoot
        {
          OFFSET -0.73152 -45.1104 -5.12064
          CHANNELS 3 Zrotation Xrotation Yrotation
          End Site
          {
            OFFSET 1.1221 -3.69964 12.103
          }
        }
      }
    }
  }
}
MOTION
Frames:	4
Frame Time:	0.03333
0.0 0.0 0.0 0.0 0.0 0.0 0.0 0.0 0.0 0.0 0.0 0.0 0.0 0.0 0.0 0.0 0.0 0.0 0.0 0.0 0.0 0.0 0.0 0.0 0.0 0.0 0.0 0.0 0.0 0.0 0.0 0.0 0.0 0.0 0.0 0.0 0.0 0.0 0.0 0.0 0.0 0.0 0.0 0.0 0.0 0.0 0.0 0.0 0.0 0.0 0.0 0.0 0.0 0.0 0.0 0.0 0.0 0.0 0.0 0.0 0.0 0.0 0.0 0.0 0.0 0.0 0.0 0.0 0.0 0.0 0.0 0.0 0.0 0.0 0.0 0.0 0.0 0.0 0.0 0.0 0.0 0.0 0.0 0.0 0.0 0.0 0.0 0.0 0.0 0.0 0.0 0.0 0.0 0.0 0.0 0.0 0.0 0.0 0.0 0.0 0.0 0.0 0.0 0.0 0.0 0.0 0.0 0.0 0.0 0.0 0.0 0.0 0.0 0.0 0.0 0.0 0.0 0.0 0.0 0.0 0.0 0.0 0.0 0.0 0.0 0.0 0.0 0.0 0.0 0.0 0.0 0.0
-4.0736 2.6869 5.81 77.177294 46.591619 147.310727 -143.051936 -5.22282 5.700957 -140.180041 -18.500869 164.810282 85.262428 -69.853289 6.203743 176.902282 -60.632078 95.594511 -175.478796 0.859238 21.510548 -53.004639 -19.410436 37.863121 -127.429567 -29.144618 128.02388 -62.358239 38.789379 -40.622914 4.127623 0.555729 -116.361404 -80.82225 35.213486 -68.563243 -87.32143 -47.404478 95.984697 -139.695458 34.230178 -3.306151 46.340094 19.197519 -164.654599 162.74043 4.800311 -57.986014 -156.426841 21.060659 139.468399 -156.979164 -0.869871 -38.93579 67.245336 -0.039218 -24.221639 109.982019 -39.46095 -41.182598 122.625351 44.395634 -179.697815 128.417756 32.164947 178.211673 3.757032 71.751114 170.167553 149.013022 52.787554 73.933534 -85.355288 -76.47407 42.564658 -36.767616 -42.702186 117.613297 -2.204771 -3.356951 -172.978924 -172.038779 5.535719 56.019312 173.643616 28.496182 -159.235479 -167.364514 -37.989578 54.165791 -165.794991 -33.695533 -21.670613 -76.908103 -27.095301 97.938468 133.997675 -21.689745 -15.034751 -56.030726 -27.714037 -18.432933 -127.776449 -24.145586 -15.982673 -140.026954 3.67592 -70.349703 81.058921 -1.790864 91.529557 149.89613 -56.25069 -34.887208 -106.449335 4.096242 84.68354 -68.209513 39.046975 -127.41439 -163.317325 -7.378849 -89.812188 88.53318 71.968796 0.723005 157.953171 0.497373 86.116831 -26.234577 23.243167 164.765031
-6.0886000000000005 2.6387 8.576 72.392836 48.674943 145.811346 -146.87967 -8.82533 102.24098 -160.206268 42.653073 -111.035475 91.216967 -54.136845 -178.498984 -158.76353 45.567169 -101.953698 -174.258286 1.057653 20.857835 -55.175862 -19.306594 36.062976 47.593089 0.250056 39.429094 -15.002155 69.877599 123.572284 -173.084086 36.158669 54.18787 -72.760258 32.809058 -65.712011 11.041481 51.73376 57.442683 -32.592265 -11.657417 127.763772 -126.092417 34.309296 -82.263196 -149.251446 -9.17151 -90.570998 59.301341 -83.063263 38.157012 -113.223874 65.572882 -92.928292 71.779237 11.202817 -20.044969 137.414209 27.163065 -13.159183 -104.238848 -28.073142 16.152917 86.702285 -47.733242 12.383772 164.00613 51.072662 17.664644 83.402256 36.395306 83.56029 7.810038 7.246497 -92.263115 -178.34916 52.405736 -11.690791 -164.196196 0.905416 84.242274 -28.77806 22.430273 144.967742 65.586825 -50.57695 94.701255 -8.490016 59.358813 168.276682 -0.959975 6.724333 -123.068382 -36.387676 -47.902774 -135.826604 107.700139 -75.475689 -8.658866 51.091997 -77.818049 104.667373 -125.70394 -1.529062 -24.621604 -14.401042 -15.45795 -146.751259 -21.591207 -4.321996 -88.793268 -158.544382 -38.555507 14.103733 109.019157 -20.915457 17.649021 74.583501 29.360902 66.104424 -169.484416 -2.60601 -90.967037 113.951932 65.938271 -112.078643 175.841767 27.666418 -21.946364 13.120583 21.31985 178.667352
-8.0789 2.612 11.2288 68.441348 50.470461 144.039836 -148.100612 -8.093192 65.279704 -141.265359 24.412053 -147.904011 97.831517 -57.657673 161.757168 -132.681471 32.978686 -133.802189 -173.929142 1.122325 20.929615 -56.890558 -19.338826 34.919204 -95.678405 -4.196097 119.670024 -97.715787 46.210041 20.884215 99.094438 -20.443652 -106.88691 -32.984465 -37.426034 -129.064121 -73.681886 -23.788524 102.807665 39.051492 -88.105963 119.589012 37.799636 16.477096 -161.57506 -2.582349 -24.345572 171.502164 -42.921409 51.780083 26.000714 164.966795 79.178768 13.27309 -76.388731 2.266501 -156.72727 -78.210704 -77.943646 24.422446 123.869472 39.13988 175.991005 -72.114214 1.050615 27.694708 -106.193788 -63.157895 105.579646 95.216557 -59.478871 -49.843258 -5.595943 24.026445 -90.212416 -174.703497 38.351071 -10.906758 -171.666046 8.655648 85.428571 -88.380267 12.228747 126.692106 20.007718 -0.113767 52.205384 83.783504 39.924721 108.422275 -28.043544 28.015892 -115.245701 164.17898 5.812947 -24.892426 -147.106307 51.541761 -114.11211 -173.456211 21.540306 -179.327254 -113.68867 -57.408955 2.204152 -78.684698 46.162726 -104.284306 -20.784602 0.480592 -91.265971 -153.716269 -40.252447 -67.452268 110.098144 49.691978 -9.777127 -148.047495 -15.460393 -74.221584 -119.943847 51.743846 -180.0 -90.356585 45.98744 0.322115 -165.738781 -36.151398 -35.615324 2.048498 -8.772932 35.397948
